<?xml version="1.0" encoding="utf-8"?>
<!-- Generator: Adobe Illustrator 16.0.1, SVG Export Plug-In . SVG Version: 6.00 Build 0)  -->
<!DOCTYPE svg PUBLIC "-//W3C//DTD SVG 1.1//EN" "http://www.w3.org/Graphics/SVG/1.1/DTD/svg11.dtd">
<svg version="1.1" id="Layer_1" xmlns="http://www.w3.org/2000/svg" xmlns:xlink="http://www.w3.org/1999/xlink" x="0px" y="0px"
	 width="100px" height="80px" viewBox="0 0 100 80" enable-background="new 0 0 100 80" xml:space="preserve">
<g>
	<g>
		<path fill-rule="evenodd" clip-rule="evenodd" fill="#4F6347" d="M84.021,41.855c-2.321,1.733-4.675,2.87-7.001,3.571
			L53.642,22.049c0.698-2.329,1.834-4.686,3.567-7.008C61.116,9.811,72.835-4.818,84.02,2.796c0,0,6.09,3.438,12.25,12.248
			C104.118,26.265,89.258,37.95,84.021,41.855z"/>
		<path fill-rule="evenodd" clip-rule="evenodd" fill="#166E3B" d="M65.096,45.824c-3.14-0.606-5.535-0.214-7.214,0.386l4.433-4.433
			l-4.996-4.997l-4.491,4.491c0.614-1.683,1.028-4.108,0.414-7.304c-0.642-3.319-0.819-6.992,0.086-10.757l22.526,22.526
			C72.092,46.646,68.42,46.467,65.096,45.824z"/>
		<path fill-rule="evenodd" clip-rule="evenodd" fill="#FFFFFF" d="M44.362,58.243c-0.556-0.558-2.952-2.952-3.512-3.514
			c0.694-0.693,15.774-15.773,16.469-16.467c0.559,0.559,2.956,2.954,3.514,3.513C60.137,42.469,45.058,57.548,44.362,58.243z"/>
	</g>
	<g>
		<path fill-rule="evenodd" clip-rule="evenodd" fill="#4F6347" d="M42.724,15.102c1.733,2.321,2.87,4.675,3.573,7.002
			L22.917,45.483c-2.328-0.701-4.685-1.835-7.007-3.567C10.68,38.007-3.949,26.289,3.665,15.104c0,0,3.438-6.089,12.25-12.249
			C27.134-4.994,38.819,9.867,42.724,15.102z"/>
		<path fill-rule="evenodd" clip-rule="evenodd" fill="#166E3B" d="M46.692,34.028c-0.604,3.141-0.213,5.534,0.386,7.215
			l-4.432-4.434l-4.998,4.996l4.491,4.49c-1.685-0.612-4.107-1.026-7.303-0.412c-3.321,0.64-6.992,0.819-10.757-0.087L46.607,23.27
			C47.516,27.032,47.336,30.703,46.692,34.028z"/>
		<path fill-rule="evenodd" clip-rule="evenodd" fill="#FFFFFF" d="M59.112,54.762c-0.557,0.558-2.953,2.952-3.513,3.515
			C54.902,57.58,39.824,42.5,39.13,41.805c0.56-0.56,2.955-2.957,3.513-3.514C43.339,38.987,58.417,54.065,59.112,54.762z"/>
	</g>
</g>
<text transform="matrix(1 0 0 1 27.8374 78.0796)" fill="#FFFFFF" font-family="'Inter-Black'" font-size="21">TPC</text>
</svg>
